<svg id="ICONS" xmlns="http://www.w3.org/2000/svg" viewBox="0 0 24 24" width="24" height="24" stroke="currentColor" stroke-width="2" fill="none" stroke-linecap="round" stroke-linejoin="round" data-id="id-325"><line x1="4.82" y1="6.27" x2="19.18" y2="6.27" data-id="id-779"/><path d="M8.82,6.27V4.08A1.05,1.05,0,0,1,9.82,3h4.36a1.05,1.05,0,0,1,1,1.09V6.27" data-id="id-82"/><path d="M17.62,5.27H6.38a1,1,0,0,0-1,1V19a3,3,0,0,0,3,3h7.24a3,3,0,0,0,3-3V6.27A1,1,0,0,0,17.62,5.27Zm-3.15,9a1,1,0,0,1,0,1.41,1,1,0,0,1-.7.29,1,1,0,0,1-.71-.29L12,14.66l-1.06,1.06a1,1,0,0,1-.71.29,1,1,0,0,1-.7-.29,1,1,0,0,1,0-1.41l1.06-1.07L9.53,12.18a1,1,0,0,1,0-1.41,1,1,0,0,1,1.41,0L12,11.83l1.06-1.06a1,1,0,0,1,1.41,0,1,1,0,0,1,0,1.41l-1.06,1.06Z" data-id="id-825" fill="currentColor" stroke="none"/></svg>